<svg id="svg" version="1.1" xmlns="http://www.w3.org/2000/svg" xmlns:xlink="http://www.w3.org/1999/xlink" width="400" height="351.99999999999994" viewBox="0, 0, 400,351.99999999999994"><g id="svgg"><path id="path0" d="M200.076 10.603 C 194.150 11.590,192.886 13.575,187.092 30.986 C 186.609 32.438,186.076 33.944,185.909 34.331 C 185.741 34.718,185.498 35.590,185.367 36.268 C 185.237 36.945,185.010 37.658,184.863 37.852 C 184.716 38.046,184.511 38.680,184.407 39.261 C 184.233 40.236,183.148 43.555,180.037 52.641 C 179.374 54.577,178.691 56.637,178.519 57.218 C 178.348 57.799,177.407 60.631,176.428 63.511 C 175.449 66.391,174.648 68.902,174.648 69.092 C 174.648 69.281,174.427 69.935,174.156 70.545 C 173.886 71.156,173.314 72.537,172.886 73.616 C 172.457 74.694,171.816 75.962,171.461 76.433 L 170.816 77.289 146.411 77.514 C 132.109 77.646,120.768 77.900,119.014 78.128 C 117.368 78.341,114.725 78.517,113.142 78.518 C 101.477 78.529,98.415 80.945,98.415 90.141 C 98.415 98.602,98.677 98.868,127.337 119.542 C 152.138 137.433,152.139 137.433,150.684 141.944 C 150.285 143.179,149.822 144.824,149.654 145.599 C 149.396 146.794,147.411 152.902,146.107 156.514 C 145.403 158.467,143.981 163.192,143.671 164.613 C 143.502 165.387,142.555 168.319,141.566 171.127 C 139.511 176.958,139.391 177.341,136.437 187.416 C 136.166 188.338,135.689 189.922,135.375 190.937 C 130.746 205.912,134.972 213.565,146.984 211.960 C 151.449 211.364,154.065 209.951,164.664 202.412 C 174.354 195.520,195.025 180.756,197.999 178.603 C 203.513 174.611,202.373 174.269,215.493 183.858 C 218.856 186.316,234.680 197.777,238.732 200.689 C 254.437 211.978,256.479 212.983,262.945 212.608 C 271.678 212.103,274.717 204.061,270.704 192.077 C 270.315 190.915,269.691 188.776,269.317 187.324 C 268.943 185.871,268.403 183.970,268.116 183.099 C 265.979 176.592,265.074 173.865,264.494 172.183 C 264.126 171.118,263.543 169.296,263.197 168.134 C 262.851 166.972,262.371 165.387,262.131 164.613 C 261.890 163.838,261.420 162.254,261.085 161.092 C 260.750 159.930,260.339 158.707,260.172 158.375 C 260.005 158.042,259.720 157.171,259.540 156.438 C 259.360 155.705,258.900 154.234,258.518 153.169 C 258.136 152.104,257.327 149.569,256.720 147.535 C 256.114 145.502,255.383 143.125,255.096 142.254 C 254.110 139.259,254.332 138.368,256.602 136.218 C 258.488 134.431,277.332 120.174,286.092 113.907 C 306.493 99.309,307.570 98.125,307.570 90.309 C 307.570 80.629,305.429 79.133,290.669 78.502 C 286.215 78.311,280.352 78.009,277.641 77.831 C 274.930 77.652,264.422 77.497,254.290 77.485 C 242.216 77.472,235.633 77.338,235.183 77.098 C 234.370 76.663,232.941 74.484,232.652 73.239 C 232.540 72.755,231.869 70.775,231.163 68.838 C 230.456 66.901,229.745 64.842,229.582 64.261 C 229.259 63.104,228.581 61.140,228.124 60.035 C 227.580 58.719,226.667 55.817,226.020 53.345 C 224.895 49.047,224.016 46.201,223.082 43.838 C 222.853 43.257,221.982 40.643,221.147 38.028 C 220.312 35.414,219.505 32.958,219.353 32.570 C 219.201 32.183,218.727 30.757,218.298 29.401 C 217.467 26.771,216.743 24.771,216.003 23.063 C 215.751 22.482,215.296 21.429,214.991 20.721 C 214.686 20.014,214.437 19.257,214.437 19.039 C 214.437 18.306,212.259 14.271,211.318 13.260 C 209.062 10.835,204.773 9.821,200.076 10.603 M316.660 49.446 C 310.128 51.030,308.103 59.648,311.897 69.718 C 313.896 75.024,314.448 76.449,314.963 77.641 C 316.022 80.093,317.099 82.787,318.132 85.563 C 318.587 86.786,320.030 91.510,320.983 94.894 C 321.255 95.863,321.716 97.413,322.007 98.340 C 322.297 99.266,322.535 100.463,322.535 100.998 C 322.535 101.534,322.698 102.134,322.897 102.333 C 323.095 102.532,323.355 103.554,323.473 104.604 C 323.592 105.655,323.824 106.687,323.989 106.899 C 324.313 107.312,324.864 111.652,325.349 117.606 C 325.515 119.639,325.832 123.037,326.055 125.157 C 326.610 130.439,326.405 151.202,325.792 151.814 C 325.550 152.056,325.350 152.974,325.346 153.856 C 325.341 155.288,324.773 158.708,323.586 164.437 C 323.366 165.502,323.039 166.524,322.860 166.708 C 322.681 166.892,322.536 167.446,322.537 167.940 C 322.538 168.434,322.315 169.551,322.042 170.423 C 321.768 171.294,321.299 172.879,321.000 173.944 C 320.700 175.009,320.051 177.236,319.558 178.893 C 319.065 180.550,318.662 182.032,318.662 182.185 C 318.662 182.338,318.413 183.043,318.108 183.750 C 317.803 184.457,317.332 185.552,317.061 186.185 C 313.260 195.056,310.177 201.205,306.788 206.672 C 299.777 217.986,287.505 231.324,277.157 238.879 C 276.648 239.250,274.806 240.606,273.063 241.892 C 252.052 257.393,221.912 266.463,199.142 264.138 C 196.999 263.920,193.504 263.570,191.373 263.361 C 169.998 261.263,147.086 251.254,127.410 235.419 C 123.184 232.017,112.504 221.266,108.841 216.725 C 105.505 212.590,100.704 206.172,100.704 205.847 C 100.704 205.757,100.094 204.761,99.347 203.634 C 97.903 201.452,93.029 193.023,92.360 191.549 C 92.140 191.065,91.219 188.926,90.313 186.796 C 89.407 184.665,88.526 182.606,88.356 182.218 C 87.921 181.227,86.979 178.542,86.627 177.289 C 86.231 175.883,85.536 173.904,85.188 173.195 C 85.034 172.880,84.796 172.008,84.661 171.258 C 84.525 170.508,84.272 169.619,84.099 169.283 C 83.755 168.617,83.215 166.322,82.753 163.556 C 82.590 162.588,82.273 160.687,82.047 159.331 C 81.821 157.975,81.469 156.322,81.265 155.656 C 81.060 154.991,80.767 152.773,80.613 150.727 C 80.459 148.681,80.172 146.215,79.976 145.246 C 79.533 143.061,79.507 117.825,79.945 115.141 C 80.118 114.076,80.426 111.778,80.628 110.035 C 81.012 106.729,81.834 102.338,82.408 100.528 C 83.948 95.672,84.901 92.897,85.490 91.549 C 86.286 89.729,91.752 78.610,92.241 77.817 C 96.623 70.703,97.900 65.561,96.906 59.033 C 96.096 53.717,93.534 51.667,87.446 51.465 C 80.487 51.234,77.477 52.927,70.561 60.959 C 66.487 65.692,56.357 80.472,50.803 89.789 C 49.584 91.833,44.922 101.097,44.069 103.169 C 43.631 104.234,43.140 105.423,42.978 105.810 C 42.816 106.197,42.176 107.782,41.555 109.331 C 40.935 110.880,40.278 112.433,40.094 112.782 C 39.531 113.851,37.324 120.735,37.324 121.421 C 37.324 121.775,37.205 122.184,37.060 122.330 C 36.915 122.475,36.611 123.333,36.385 124.237 C 36.159 125.141,35.718 126.831,35.404 127.993 C 34.310 132.041,33.771 134.345,33.436 136.389 C 33.251 137.520,33.011 138.589,32.904 138.763 C 32.527 139.372,31.619 144.919,31.467 147.535 C 31.383 148.988,31.173 150.493,31.001 150.880 C 30.828 151.268,30.606 153.389,30.506 155.594 C 30.407 157.800,30.157 159.772,29.951 159.978 C 29.435 160.495,29.429 193.725,29.946 194.242 C 30.149 194.445,30.411 196.304,30.528 198.374 C 30.645 200.444,30.876 202.221,31.040 202.322 C 31.204 202.423,31.338 203.755,31.338 205.282 C 31.338 206.808,31.478 208.144,31.649 208.249 C 31.820 208.355,32.071 209.334,32.208 210.425 C 32.344 211.516,32.680 213.044,32.953 213.819 C 33.227 214.595,33.451 215.675,33.451 216.221 C 33.451 216.766,33.591 217.299,33.763 217.405 C 33.935 217.511,34.181 218.194,34.310 218.922 C 34.440 219.651,34.755 220.880,35.010 221.655 C 35.613 223.481,36.425 226.175,36.972 228.169 C 37.368 229.610,39.065 234.359,39.804 236.092 C 39.969 236.479,41.003 238.935,42.102 241.549 C 44.353 246.905,45.939 250.219,47.244 252.289 C 47.732 253.063,48.893 255.044,49.824 256.690 C 54.250 264.519,63.685 277.823,68.670 283.265 C 69.739 284.432,71.237 286.180,71.998 287.148 C 74.148 289.885,79.180 294.974,81.514 296.774 C 82.676 297.671,84.824 299.516,86.287 300.874 C 91.265 305.496,104.148 314.844,113.609 320.697 C 132.150 332.167,162.764 342.059,184.683 343.660 C 187.394 343.858,191.039 344.175,192.782 344.363 C 197.629 344.887,215.462 344.782,223.369 344.183 C 252.824 341.951,285.141 328.865,313.204 307.807 C 328.844 296.071,348.112 274.523,358.109 257.589 C 361.246 252.274,366.554 241.265,368.304 236.444 C 368.725 235.282,369.216 234.056,369.394 233.720 C 369.573 233.383,369.718 232.719,369.718 232.244 C 369.718 231.769,369.877 231.282,370.070 231.162 C 370.264 231.042,370.423 230.642,370.423 230.273 C 370.423 229.904,370.641 229.081,370.908 228.445 C 371.175 227.809,371.669 226.338,372.006 225.176 C 372.343 224.014,372.833 222.350,373.093 221.479 C 373.576 219.866,374.223 217.426,375.006 214.261 C 375.494 212.287,375.940 209.951,376.395 206.972 C 376.564 205.868,376.864 204.442,377.063 203.803 C 377.521 202.326,378.117 197.785,378.524 192.661 C 378.698 190.465,379.010 188.464,379.217 188.214 C 379.986 187.287,379.351 156.703,378.572 157.188 C 378.447 157.266,378.395 155.768,378.456 153.860 C 378.518 151.919,378.407 150.093,378.204 149.713 C 378.004 149.340,377.735 147.707,377.605 146.084 C 377.476 144.462,377.248 142.975,377.099 142.782 C 376.950 142.588,376.724 141.479,376.596 140.317 C 376.159 136.351,375.586 133.671,374.150 128.873 C 373.889 128.002,373.392 126.338,373.045 125.176 C 372.698 124.014,372.033 121.954,371.568 120.599 C 371.103 119.243,370.641 117.817,370.543 117.430 C 370.444 117.042,370.229 116.408,370.065 116.021 C 369.900 115.634,369.255 113.891,368.632 112.148 C 368.008 110.405,367.034 107.949,366.467 106.690 C 365.900 105.431,365.193 103.847,364.895 103.169 C 363.616 100.255,362.196 97.372,360.949 95.157 C 360.213 93.851,359.178 91.989,358.647 91.021 C 356.596 87.274,347.751 73.541,345.041 69.894 C 344.465 69.120,343.178 67.298,342.181 65.845 C 332.217 51.334,325.822 47.225,316.660 49.446 M326.657 125.436 C 326.573 125.874,326.501 125.599,326.497 124.824 C 326.493 124.049,326.562 123.691,326.650 124.028 C 326.739 124.364,326.742 124.998,326.657 125.436 M214.173 265.037 C 213.737 265.121,213.024 265.121,212.588 265.037 C 212.152 264.953,212.509 264.885,213.380 264.885 C 214.252 264.885,214.608 264.953,214.173 265.037 M224.916 343.552 C 224.579 343.640,223.946 343.643,223.508 343.559 C 223.070 343.475,223.345 343.403,224.120 343.399 C 224.894 343.395,225.253 343.464,224.916 343.552 M219.630 343.905 C 219.291 343.993,218.737 343.993,218.398 343.905 C 218.059 343.816,218.336 343.744,219.014 343.744 C 219.692 343.744,219.969 343.816,219.630 343.905 " stroke="none" fill="#ffffff" fill-rule="evenodd"></path><path id="path1" d="M325.805 124.120 C 325.808 125.088,325.876 125.442,325.957 124.907 C 326.038 124.372,326.036 123.580,325.952 123.147 C 325.869 122.713,325.802 123.151,325.805 124.120 M326.497 124.824 C 326.501 125.599,326.573 125.874,326.657 125.436 C 326.742 124.998,326.739 124.364,326.650 124.028 C 326.562 123.691,326.493 124.049,326.497 124.824 M212.236 264.333 C 212.672 264.417,213.385 264.417,213.820 264.333 C 214.256 264.249,213.900 264.180,213.028 264.180 C 212.157 264.180,211.800 264.249,212.236 264.333 M212.588 265.037 C 213.024 265.121,213.737 265.121,214.173 265.037 C 214.608 264.953,214.252 264.885,213.380 264.885 C 212.509 264.885,212.152 264.953,212.588 265.037 M223.508 343.559 C 223.946 343.643,224.579 343.640,224.916 343.552 C 225.253 343.464,224.894 343.395,224.120 343.399 C 223.345 343.403,223.070 343.475,223.508 343.559 M218.398 343.905 C 218.737 343.993,219.291 343.993,219.630 343.905 C 219.969 343.816,219.692 343.744,219.014 343.744 C 218.336 343.744,218.059 343.816,218.398 343.905 M223.860 344.263 C 224.298 344.347,224.932 344.344,225.268 344.256 C 225.605 344.168,225.246 344.099,224.472 344.103 C 223.697 344.107,223.422 344.179,223.860 344.263 " stroke="none" fill="#4e4e4e" fill-rule="evenodd"></path></g></svg>